Coordinates
version=1
nRows=65
nColumns=12
inDegrees=yes

Units are S.I. units (second, meters, Newtons, ...)
Angles are in degrees

endheader
time	SC_y	SC_z	SC_x	AC_y	AC_z	AC_x	GH_y	GH_z	GH_yy	EL_x	PS_y
       0.0              -54.77          14.47          77.69          66.47         -1.305         -18.47         -135.3          55.88          155.7          54.75          144.8
  0.007104              -54.77          14.47          77.68          66.47         -1.306         -18.47         -135.3          55.88          155.7          54.74          144.8
   0.01421              -54.76          14.47          77.68          66.47         -1.306         -18.47         -135.3          55.88          155.7          54.74          144.7
   0.02131              -54.76          14.48          77.67          66.47         -1.307         -18.47         -135.2          55.89          155.7          54.73          144.7
   0.02842              -54.76          14.48          77.67          66.47         -1.308         -18.47         -135.2          55.89          155.7          54.73          144.7
   0.03552              -54.76          14.48          77.66          66.47         -1.309         -18.47         -135.1          55.89          155.7          54.72          144.7
   0.04262              -54.75          14.49          77.65          66.47          -1.31         -18.47         -135.1          55.89          155.7          54.72          144.6
   0.04973              -54.75          14.49          77.65          66.47         -1.311         -18.47         -135.0          55.89          155.7          54.71          144.6
   0.05683              -54.75           14.5          77.64          66.47         -1.312         -18.47         -135.0           55.9          155.7           54.7          144.6
   0.06393              -54.74           14.5          77.63          66.47         -1.313         -18.47         -134.9           55.9          155.7           54.7          144.6
   0.07104              -54.74          14.51          77.62          66.46         -1.314         -18.46         -134.9           55.9          155.7          54.69          144.5
   0.07814              -54.73          14.51          77.62          66.46         -1.315         -18.46         -134.8           55.9          155.7          54.68          144.5
   0.08525              -54.73          14.52          77.61          66.46         -1.317         -18.46         -134.7          55.91          155.7          54.67          144.5
   0.09235              -54.72          14.52           77.6          66.46         -1.318         -18.46         -134.6          55.91          155.7          54.66          144.4
   0.09945              -54.72          14.53          77.58          66.46          -1.32         -18.46         -134.5          55.91          155.7          54.65          144.4
    0.1066              -54.71          14.54          77.57          66.46         -1.322         -18.46         -134.4          55.92          155.7          54.64          144.3
    0.1137              -54.71          14.54          77.56          66.45         -1.324         -18.46         -134.3          55.92          155.7          54.63          144.3
    0.1208               -54.7          14.55          77.54          66.45         -1.326         -18.46         -134.2          55.93          155.7          54.62          144.2
    0.1279              -54.69          14.56          77.53          66.45         -1.328         -18.46         -134.1          55.93          155.7           54.6          144.2
     0.135              -54.68          14.57          77.51          66.45         -1.331         -18.45         -133.9          55.94          155.7          54.59          144.1
    0.1421              -54.68          14.58          77.49          66.44         -1.333         -18.45         -133.8          55.94          155.7          54.57          144.0
    0.1492              -54.67          14.59          77.47          66.44         -1.336         -18.45         -133.6          55.95          155.7          54.55          144.0
    0.1563              -54.65          14.61          77.45          66.44          -1.34         -18.45         -133.4          55.96          155.7          54.53          143.9
    0.1634              -54.64          14.62          77.42          66.43         -1.344         -18.44         -133.2          55.96          155.7           54.5          143.8
    0.1705              -54.63          14.64          77.39          66.43         -1.348         -18.44         -133.0          55.97          155.7          54.48          143.7
    0.1776              -54.61          14.66          77.36          66.42         -1.352         -18.44         -132.8          55.98          155.7          54.45          143.5
    0.1847               -54.6          14.68          77.33          66.42         -1.357         -18.44         -132.5           56.0          155.7          54.42          143.4
    0.1918              -54.58           14.7          77.29          66.41         -1.363         -18.43         -132.2          56.01          155.7          54.38          143.3
    0.1989              -54.55          14.72          77.24          66.41          -1.37         -18.43         -131.8          56.02          155.6          54.34          143.1
     0.206              -54.53          14.75          77.19           66.4         -1.377         -18.42         -131.4          56.04          155.6          54.29          142.9
    0.2131               -54.5          14.79          77.13          66.39         -1.386         -18.42         -130.9          56.06          155.6          54.24          142.7
    0.2202              -54.47          14.83          77.07          66.38         -1.396         -18.41         -130.4          56.08          155.6          54.18          142.4
    0.2273              -54.43          14.87          76.99          66.37         -1.407          -18.4         -129.8           56.1          155.6          54.11          142.1
    0.2344              -54.39          14.92           76.9          66.35          -1.42         -18.39         -129.1          56.13          155.6          54.03          141.8
    0.2415              -54.34          14.98          76.79          66.34         -1.435         -18.38         -128.2          56.17          155.6          53.93          141.4
    0.2486              -54.28          15.05          76.67          66.32         -1.454         -18.37         -127.2          56.21          155.6          53.82          140.9
    0.2557              -54.21          15.14          76.52          66.29         -1.475         -18.36         -126.1          56.25          155.6          53.68          140.4
    0.2628              -54.12          15.24          76.34          66.27         -1.501         -18.34         -124.7          56.31          155.5          53.52          139.7
    0.2699              -54.02          15.36          76.13          66.23         -1.532         -18.32         -122.9          56.38          155.5          53.33          138.9
     0.277              -53.89          15.51          75.87          66.19          -1.57         -18.29         -120.9          56.46          155.5          53.09          137.9
    0.2842              -53.74           15.7          75.55          66.14         -1.617         -18.26         -118.3          56.56          155.4          52.79          136.7
    0.2913              -53.54          15.93          75.14          66.08         -1.676         -18.22         -115.1          56.69          155.4          52.43          135.1
    0.2984               -53.3          16.22          74.64           66.0          -1.75         -18.17         -111.1          56.85          155.3          51.96          133.2
    0.3055              -52.99          16.59          73.99           65.9         -1.844         -18.11         -105.9          57.06          155.2          51.38          130.8
    0.3126              -52.59          17.06          73.17          65.78         -1.964         -18.03         -99.36          57.32          155.1          50.62          127.6
    0.3197              -52.08          17.66          72.11          65.61         -2.118         -17.93         -90.93          57.66          155.0          49.66          123.6
    0.3268              -51.42          18.44          70.76           65.4         -2.315         -17.79         -80.16          58.09          154.8          48.43          118.5
    0.3339               -50.6          19.41          69.06          65.14         -2.563         -17.63         -66.62          58.63          154.6          46.88          112.1
     0.341               -49.6           20.6          66.99          64.82         -2.865         -17.42         -50.12           59.3          154.3          44.99          104.2
    0.3481              -48.45          21.97          64.59          64.45         -3.215         -17.19          -31.0          60.06          154.0           42.8          95.13
    0.3552              -47.19          23.46          61.99          64.05         -3.594         -16.94          -10.3          60.89          153.6          40.43          85.28
    0.3623              -45.94          24.95           59.4          63.64         -3.973         -16.68          10.41          61.72          153.3          38.06          75.43
    0.3694              -44.78          26.33           57.0          63.27         -4.323         -16.45          29.53          62.49          153.0          35.87          66.34
    0.3765              -43.78          27.51          54.93          62.95         -4.625         -16.24          46.03          63.15          152.7          33.98          58.49
    0.3836              -42.96          28.49          53.23          62.69         -4.873         -16.08          59.57          63.69          152.5          32.43          52.05
    0.3907              -42.31          29.26          51.88          62.48          -5.07         -15.95          70.33          64.12          152.3           31.2          46.93
    0.3978              -41.79          29.87          50.82          62.32         -5.224         -15.84          78.76          64.46          152.2          30.23          42.92
    0.4049               -41.4          30.34          49.99          62.19         -5.345         -15.76          85.33          64.72          152.1          29.48          39.79
     0.412              -41.09          30.71          49.35          62.09         -5.439          -15.7          90.46          64.93          152.0          28.89          37.35
    0.4191              -40.84           31.0          48.84          62.01         -5.513         -15.65           94.5          65.09          151.9          28.43          35.43
    0.4262              -40.65          31.23          48.44          61.95         -5.571         -15.61           97.7          65.22          151.9          28.06          33.91
    0.4333              -40.49          31.41          48.12           61.9         -5.618         -15.58          100.3          65.32          151.8          27.77          32.68
    0.4404              -40.36          31.56          47.86          61.86         -5.656         -15.55          102.4          65.41          151.8          27.53          31.69
    0.4475              -40.26          31.69          47.64          61.83         -5.688         -15.53          104.1          65.47          151.8          27.34          30.88
    0.4546              -40.18          31.79          47.47           61.8         -5.713         -15.51          105.5          65.53          151.7          27.17          30.21
